# xmcd
# Copyright (C) 1995-1998 Ti Kan
#
# Track frame offsets:
#       150
#       14307
#       30717
#       44695
#       57148
#
# Disc length: 947 seconds
#
# Revision: 0
# Processed by: cddbd v1.5.1PL2 Copyright (c) Steve Scherf et al.
# Submitted via: CD-Transfer v1.0
#
DISCID=3a03b105
DTITLE=Aleksandra - 
DYEAR=06
DGENRE=
TTITLE0=Me Gusta El Sol
TTITLE1=Ein Lied Geht Auf Die Reise
TTITLE2=Sehnsucht Nach Den Sternen
TTITLE3=Jedes Mal Mehr 
TTITLE4=Me Gusta El Sol Discoversion
EXTD=
EXTT0=
EXTT1=
EXTT2=
EXTT3=
EXTT4=
PLAYORDER=
